<?xml version="1.0" encoding="utf-8"?>
<!-- Generator: Adobe Illustrator 16.2.1, SVG Export Plug-In . SVG Version: 6.00 Build 0)  -->
<!DOCTYPE svg PUBLIC "-//W3C//DTD SVG 1.1//EN" "http://www.w3.org/Graphics/SVG/1.1/DTD/svg11.dtd">
<svg version="1.1" id="Layer_1" xmlns="http://www.w3.org/2000/svg" xmlns:xlink="http://www.w3.org/1999/xlink" x="0px" y="0px"
	 width="503px" height="503px" viewBox="0 0 503 503" enable-background="new 0 0 503 503" xml:space="preserve">
<g>
	<path fill="#F5881E" d="M387.99-149.2c18.55,16.22,34.779,28.11,48.88,36.75c-51.04-17.99-87.62-66.63-87.62-123.83
		c0-57.47,36.95-106.33,88.39-124.09c2.601,21.24,9.13,66.61,21.45,106.68c-29.18,21.881-39.979,31.7-60.75,50.58l-5.46,4.96
		c-2.05,1.86-3.33,3.04-4.1,3.761c-0.471,0.449-0.79,0.75-0.98,0.949c-0.64,0.641-1.14,1.311-1.53,2.011
		c-7.199,8.279-8.659,16.05-8.529,21.33C377.94-162.34,381.68-154.72,387.99-149.2z"/>
	<path fill="#F5881E" d="M504.78-127.39c2.6,6.899,3.84,15.62,2.56,17.84c-2.04,1.189-31.33,16.05-108.82-51.7
		c-1.399-1.22-4.659-4.57-4.779-9.25c-0.101-3.98,2.109-8.18,6.569-12.5c0.381-0.37,0.721-0.77,1.011-1.2
		c0.6-0.54,1.35-1.229,2.31-2.1l5.47-4.97c19.33-17.57,29.881-27.16,55.471-46.511c3.899,10.04,13.66,35.36,23.199,61.44
		c-5.859,0.47-12.239,0.84-19.189,1.1c-2.521-0.319-6.5-1.06-8.2-1.84c-4.02-1.83-8.76-0.07-10.6,3.95
		c-1.84,4.01-0.08,8.76,3.939,10.6c4.8,2.2,12.23,3.101,13.66,3.261c0.39,0.039,0.771,0.05,1.16,0.039
		c8.89-0.31,17.18-0.819,24.87-1.51c4.24,11.91,8.18,23.36,11.22,32.931C504.67-127.67,504.72-127.52,504.78-127.39z"/>
	<path fill="#F5881E" d="M461.03-314.14c-4-21.271-6.5-39.94-7.78-50.561c8.79-1.85,17.91-2.83,27.25-2.83
		c26.33,0,50.86,7.761,71.41,21.12c-16.71-1.09-65.9,6.601-89.37,30.59C462.07-315.34,461.56-314.78,461.03-314.14z"/>
	<path fill="#F5881E" d="M561.26-327.57c-33.689,24.04-58.479,41.83-77.49,55.681c-9.09-10.25-11.989-17.67-12.659-22.48
		c-0.73-5.31,1.149-8.51,2.859-10.26c18.471-18.88,59.58-25.94,74.221-25.94c1.56,0,2.819,0.08,3.72,0.23
		C555.65-329.7,558.76-328.67,561.26-327.57z"/>
	<path fill="#F5881E" d="M477.87-247.72c1.399-1.03,2.83-2.09,4.3-3.17c15.1,13.93,36.44,28.83,63.94,44.609
		c4.27,2.45,6.06,3.67,7.18,4.94c0.24,0.649,0.79,2.66-0.54,5.14c-1.83,3.41-10.35,13.08-48.58,18.15
		C492.21-210.95,479.47-243.62,477.87-247.72z"/>
	<path fill="#F5881E" d="M611.75-236.28c0,57.3-36.72,106.021-87.91,123.92c0.18-8.21-2.609-16.72-4.03-20.489
		c-2.779-8.761-6.29-19.03-10.09-29.771c31.41-4.52,50.221-13.13,57.141-26.03c4.8-8.96,2.239-17.6-0.03-21.29
		c-0.14-0.22-0.29-0.439-0.45-0.649c-3.14-4.12-7.08-6.57-12.31-9.57c-27.721-15.91-46.33-29.3-58.771-40.33
		c20.391-14.84,47.36-34.16,84.601-60.72c0.13-0.1,0.26-0.19,0.39-0.31C599.91-298.59,611.75-268.82,611.75-236.28z"/>
</g>
<path d="M137.846-38.45"/>
<path d="M175.902-362.332c-6.25-1.95-20.162-1.547-20.162-1.547c-19.823-0.18-65.9,6.6-89.37,30.59c-0.47,0.48-0.98,1.04-1.51,1.68
	c-4-21.27-6.5-39.94-7.78-50.56l-3.58-22.63c0,0-1.5-12.17-5.29-14.23c-5.5-3-10.55,0.51-11.71,4.56c-0.65,2.25-0.845,4.67-0.245,8
	c0.39,2.23,8.745,55.95,8.745,56.1v0.01c4,22.81,9.455,52.2,17.755,79.2c-29.18,21.88-39.902,31.7-60.672,50.58l-5.412,4.96
	c-2.05,1.86-3.31,3.04-4.08,3.76c-0.47,0.45-0.785,0.75-0.976,0.95c-0.64,0.64-1.133,1.31-1.523,2.01
	c-7.2,8.28-8.651,16.05-8.521,21.33c0.2,7.76,3.939,15.38,10.249,20.9c18.55,16.22,34.78,28.11,48.88,36.75
	c0,0,30.799,20.95,65.709,22.53c10.32,0.47,15.09-5.75,18.42-11.75c0,0,2.33-4.41,2.84-10.69c0.18-8.21-2.61-16.72-4.03-20.489
	c-2.78-8.761-6.29-19.03-10.09-29.771c31.41-4.52,50.22-13.13,57.14-26.03c4.8-8.96,2.24-17.6-0.03-21.29
	c-0.14-0.22-0.29-0.44-0.45-0.65c-3.14-4.12-7.08-6.57-12.31-9.57c-27.72-15.91-46.33-29.3-58.77-40.33
	c20.39-14.84,41.601-30.051,78.84-56.611c4.31-3.08,8.291-7.971,9.091-12.751C187.861-352.101,182.142-360.381,175.902-362.332z
	 M111.17-127.018c-1.92,1.8-11.48,5.95-34.98-2.86c-17.1-6.41-41.19-20.3-73.84-48.84c-1.4-1.22-4.66-4.57-4.78-9.25
	c-0.1-3.98,2.11-8.18,6.57-12.5c0.38-0.37,0.72-0.77,1.01-1.2c0.6-0.54,1.35-1.23,2.31-2.1l5.47-4.97
	c19.33-17.57,29.88-27.16,55.47-46.51c3.9,10.04,13.66,35.36,23.2,61.44c-5.86,0.47-12.24,0.84-19.19,1.1
	c-2.52-0.32-6.5-1.06-8.2-1.84c-4.02-1.83-8.76-0.07-10.6,3.95c-1.84,4.01-0.08,8.76,3.94,10.6c4.8,2.2,12.23,3.1,13.66,3.26
	c0.39,0.04,0.77,0.05,1.16,0.04c8.89-0.31,17.18-0.82,24.87-1.51c4.24,11.91,8.18,23.36,11.22,32.931c0.04,0.14,0.09,0.29,0.15,0.42
	c1.94,5.14,3.52,11.22,3.47,14.939C112.06-128.638,111.5-127.579,111.17-127.018z M149.94-223.748c4.27,2.45,6.06,3.67,7.18,4.94
	c0.24,0.65,0.79,2.66-0.54,5.14c-1.83,3.41-10.35,13.08-48.58,18.15c-11.96-32.9-24.7-65.57-26.3-69.67c1.4-1.03,2.83-2.09,4.3-3.17
	C101.1-254.428,122.44-239.528,149.94-223.748z M87.6-289.358c-9.09-10.25-11.99-17.67-12.66-22.48c-0.73-5.31,1.15-8.51,2.86-10.26
	c18.47-18.88,59.58-25.94,74.22-25.94c1.56,0,2.82,0.08,3.72,0.23c3.74,0.64,6.85,1.67,9.35,2.77
	C131.4-320.998,106.61-303.208,87.6-289.358z"/>
<g>
	<path fill="#F5881E" d="M-313.73,135.921c3.399,9.02,6.18,19.68,6.09,26.21c-0.04,2.25-1.021,4.109-1.6,5.09
		c-3.37,3.16-20.141,10.439-61.371-5.021c-30.01-11.25-72.27-35.609-129.55-85.689c-2.46-2.141-8.18-8.021-8.39-16.23
		c-0.18-6.979,3.7-14.35,11.53-21.93c0.66-0.65,1.26-1.35,1.77-2.1c1.05-0.95,2.37-2.16,4.05-3.69l9.6-8.72
		c33.91-30.82,52.42-47.65,97.32-81.601c6.84,17.61,23.97,62.04,40.71,107.801c-10.29,0.819-21.48,1.47-33.67,1.93
		c-4.42-0.561-11.41-1.86-14.39-3.23c-7.05-3.21-15.37-0.12-18.6,6.931c-3.23,7.029-0.14,15.37,6.91,18.6
		c8.43,3.86,21.46,5.43,23.97,5.72c0.69,0.07,1.35,0.08,2.04,0.07c15.59-0.55,30.14-1.44,43.63-2.65
		c7.44,20.891,14.35,40.98,19.69,57.771C-313.92,135.431-313.84,135.69-313.73,135.921z"/>
	<path fill="#F5881E" d="M-360.94-75.199c2.45-1.811,4.96-3.67,7.54-5.561c26.49,24.44,63.93,50.58,112.18,78.271
		c7.5,4.29,10.63,6.439,12.6,8.66c0.42,1.14,1.391,4.67-0.949,9.02c-3.21,5.99-18.16,22.95-85.23,31.851
		C-335.78-10.689-358.14-67.999-360.94-75.199z"/>
	<path fill="#F5881E" d="M-521.69,23.561c-12.63,14.53-15.17,28.16-14.94,37.42c0.35,13.62,6.92,26.99,17.99,36.67
		c32.54,28.46,61.02,49.32,85.76,64.48c0,0,11.63,7.91,30.23,16.68h-308.82v-503h270.06c0.04,0.36,0.1,0.73,0.17,1.11
		c0.68,3.92,14.77,98.17,14.77,98.43v0.02c8,40.021,17.16,91.58,31.72,138.96c-51.2,38.391-69.72,55.61-106.17,88.74l-9.35,8.7
		c-3.6,3.271-5.74,5.33-7.09,6.6c-0.82,0.79-1.34,1.311-1.67,1.671C-520.16,21.16-521,22.33-521.69,23.561z"/>
	<path fill="#F5881E" d="M-214.64-215.3c-59.11,42.181-102.6,73.391-135.95,97.69c-15.95-17.98-21.04-31-22.21-39.44
		c-1.28-9.31,2.01-14.93,5.01-18c32.41-33.12,104.54-45.51,130.22-45.51c2.739,0,4.949,0.14,6.529,0.4
		C-224.48-219.029-219.02-217.229-214.64-215.3z"/>
	<path fill="#F5881E" d="M-208.47-324.189v76.43c-10.85-0.93-22.57-0.59-22.57-0.59c-34.779-0.32-115.62,11.58-156.8,53.67
		c-0.83,0.84-1.72,1.82-2.65,2.95c-7.02-37.32-11.4-70.08-13.65-88.71l-6.28-39.71c0,0-0.2-1.62-0.63-4.04H-208.47z"/>
	<path fill="#F5881E" d="M-330.36-97.609c32.659-23.771,66.52-48.08,121.89-87.6V-13.38c-5.01-5.329-11.1-9.06-18.78-13.47
		C-275.89-54.76-308.541-78.249-330.36-97.609z"/>
	<path fill="#F5881E" d="M-208.47,34.181v144.63h-75.78c1.271-3.06,3.351-9.03,3.96-16.52c0.32-14.41-4.58-29.341-7.069-35.95
		c-4.88-15.37-11.04-33.391-17.7-52.23C-254.75,66.87-222.871,53.65-208.47,34.181z"/>
</g>
<g>
	<path fill="#DE5621" d="M-161.26,460.11c3.399,9.02,6.18,19.68,6.09,26.21c-0.04,2.25-1.021,4.109-1.6,5.09
		c-3.37,3.16-20.141,10.439-61.371-5.021c-30.01-11.25-72.27-35.609-129.55-85.689c-2.46-2.141-8.18-8.021-8.39-16.23
		c-0.18-6.979,3.7-14.35,11.53-21.93c0.66-0.65,1.26-1.35,1.77-2.1c1.05-0.95,2.37-2.16,4.05-3.69l9.6-8.72
		c33.91-30.82,52.42-47.65,97.32-81.601c6.84,17.61,23.97,62.04,40.71,107.801c-10.29,0.819-21.48,1.47-33.67,1.93
		c-4.42-0.561-11.41-1.86-14.39-3.23c-7.05-3.21-15.37-0.12-18.6,6.931c-3.23,7.029-0.14,15.37,6.91,18.6
		c8.43,3.86,21.46,5.43,23.97,5.72c0.69,0.07,1.35,0.08,2.04,0.07c15.59-0.55,30.14-1.44,43.63-2.65
		c7.44,20.891,14.35,40.98,19.69,57.771C-161.45,459.62-161.37,459.88-161.26,460.11z"/>
	<path fill="#DE5621" d="M-208.47,248.99c2.45-1.811,4.96-3.67,7.54-5.561c26.49,24.44,63.93,50.58,112.18,78.271
		c7.5,4.29,10.63,6.439,12.6,8.66c0.42,1.14,1.391,4.67-0.949,9.02c-3.21,5.99-18.16,22.95-85.23,31.851
		C-183.31,313.5-205.67,256.19-208.47,248.99z"/>
	<path fill="#DE5621" d="M-369.22,347.75c-12.63,14.53-15.17,28.16-14.94,37.42c0.35,13.62,6.92,26.99,17.99,36.67
		c32.54,28.46,61.02,49.32,85.76,64.48c0,0,11.63,7.91,30.23,16.68H-559V0h270.06c0.04,0.36,0.1,0.73,0.17,1.11
		C-288.09,5.03-274,99.28-274,99.54v0.02c8,40.021,17.16,91.58,31.72,138.96c-51.2,38.391-69.72,55.61-106.17,88.74l-9.35,8.7
		c-3.6,3.271-5.74,5.33-7.09,6.6c-0.82,0.79-1.34,1.311-1.67,1.671C-367.69,345.35-368.53,346.52-369.22,347.75z"/>
	<path fill="#DE5621" d="M-62.17,108.89c-59.11,42.181-102.6,73.391-135.95,97.69c-15.95-17.98-21.04-31-22.21-39.44
		c-1.28-9.31,2.01-14.93,5.01-18c32.41-33.12,104.54-45.51,130.22-45.51c2.739,0,4.949,0.14,6.529,0.4
		C-72.01,105.16-66.55,106.96-62.17,108.89z"/>
	<path fill="#DE5621" d="M-56,0v76.43c-10.85-0.93-22.57-0.59-22.57-0.59c-34.779-0.32-115.62,11.58-156.8,53.67
		c-0.83,0.84-1.72,1.82-2.65,2.95c-7.02-37.32-11.4-70.08-13.65-88.71l-6.28-39.71c0,0-0.2-1.62-0.63-4.04H-56z"/>
	<path fill="#DE5621" d="M-177.89,226.58c32.659-23.771,66.52-48.08,121.89-87.6V310.81c-5.01-5.329-11.1-9.06-18.78-13.47
		C-123.42,269.43-156.07,245.94-177.89,226.58z"/>
	<path fill="#DE5621" d="M-56,358.37V503h-75.78c1.271-3.06,3.351-9.03,3.96-16.52c0.32-14.41-4.58-29.341-7.069-35.95
		c-4.88-15.37-11.04-33.391-17.7-52.23C-102.28,391.06-70.4,377.84-56,358.37z"/>
</g>
<g>
	<path fill="#FF8800" d="M397.74,460.11c3.4,9.02,6.18,19.68,6.09,26.21c-0.039,2.25-1.02,4.109-1.6,5.09
		c-3.369,3.16-20.141,10.439-61.37-5.021c-30.01-11.25-72.271-35.609-129.55-85.689c-2.46-2.141-8.18-8.021-8.391-16.23
		c-0.18-6.979,3.701-14.35,11.531-21.93c0.659-0.65,1.26-1.35,1.77-2.1c1.05-0.95,2.369-2.16,4.05-3.69l9.601-8.72
		c33.909-30.82,52.42-47.65,97.319-81.601c6.84,17.61,23.97,62.04,40.71,107.801c-10.29,0.819-21.48,1.47-33.67,1.93
		c-4.42-0.561-11.41-1.86-14.391-3.23c-7.049-3.21-15.369-0.12-18.6,6.931c-3.23,7.029-0.14,15.37,6.91,18.6
		c8.43,3.86,21.46,5.43,23.971,5.72c0.689,0.07,1.35,0.08,2.039,0.07c15.59-0.55,30.141-1.44,43.631-2.65
		c7.439,20.891,14.35,40.98,19.689,57.771C397.551,459.62,397.631,459.88,397.74,460.11z"/>
	<path fill="#FF8800" d="M350.53,248.99c2.45-1.811,4.96-3.67,7.54-5.561c26.49,24.44,63.93,50.58,112.18,78.271
		c7.5,4.29,10.631,6.439,12.6,8.66c0.42,1.14,1.391,4.67-0.949,9.02c-3.209,5.99-18.16,22.95-85.23,31.851
		C375.69,313.5,353.33,256.19,350.53,248.99z"/>
	<path fill="#FF8800" d="M189.78,347.75c-12.63,14.53-15.17,28.16-14.94,37.42c0.351,13.62,6.92,26.99,17.99,36.67
		c32.541,28.46,61.021,49.32,85.76,64.48c0,0,11.631,7.91,30.23,16.68H0V0h270.061c0.04,0.36,0.1,0.73,0.17,1.11
		C270.91,5.03,285,99.28,285,99.54v0.02c8,40.021,17.16,91.58,31.721,138.96c-51.2,38.391-69.721,55.61-106.17,88.74l-9.35,8.7
		c-3.601,3.271-5.74,5.33-7.091,6.6c-0.819,0.79-1.34,1.311-1.67,1.671C191.311,345.35,190.471,346.52,189.78,347.75z"/>
	<path fill="#FF8800" d="M496.83,108.89c-59.109,42.181-102.6,73.391-135.949,97.69c-15.95-17.98-21.041-31-22.211-39.44
		c-1.279-9.31,2.011-14.93,5.011-18c32.409-33.12,104.54-45.51,130.22-45.51c2.74,0,4.949,0.14,6.529,0.4
		C486.99,105.16,492.451,106.96,496.83,108.89z"/>
	<path fill="#FF8800" d="M503,0v76.43c-10.85-0.93-22.57-0.59-22.57-0.59c-34.779-0.32-115.619,11.58-156.799,53.67
		c-0.83,0.84-1.721,1.82-2.65,2.95c-7.02-37.32-11.4-70.08-13.65-88.71l-6.279-39.71c0,0-0.2-1.62-0.631-4.04H503z"/>
	<path fill="#FF8800" d="M381.111,226.58c32.658-23.771,66.52-48.08,121.889-87.6V310.81c-5.01-5.329-11.1-9.06-18.779-13.47
		C435.58,269.43,402.93,245.94,381.111,226.58z"/>
	<path fill="#FF8800" d="M503,358.37V503h-75.779c1.27-3.06,3.35-9.03,3.959-16.52c0.32-14.41-4.58-29.341-7.068-35.95
		c-4.881-15.37-11.041-33.391-17.701-52.23C456.721,391.06,488.6,377.84,503,358.37z"/>
</g>
</svg>
